# xmcd CD database file
# Copyright (C) 1996 Ti Kan
#
# Track frame offsets:
#	150
#	14165
#	29684
#	38562
#	56949
#	72899
#	84500
#	97692
#	116168
#	126582
#	148369
#	157251
#	171101
# Disc length: 2468 seconds
#
# Revision: 1
# Processed by: cddbd v1.4PL0 Copyright (c) Steve Scherf et al.
# Submitted via: CDCOPY 4.900
#
DISCID=c309a20d
DTITLE=Betsy Pecanins - El Efecto Tequila
DYEAR=1900
DGENRE=
TTITLE0=No Me Amenaces
TTITLE1=Fallaste Corazon
TTITLE2=Ya Llego el Ausente
TTITLE3=La Chancla
TTITLE4=Amaneci en tus Brazos
TTITLE5=Los Tarzanes
TTITLE6=Arrieros Somos
TTITLE7=Por un Amor
TTITLE8=Libro Abierto
TTITLE9=Un Mundo Raro
TTITLE10=La Tequilera
TTITLE11=La Tequilera
TTITLE12=Continuo Sufrimiento
EXTD=
EXTT0=
EXTT1=
EXTT2=
EXTT3=
EXTT4=
EXTT5=
EXTT6=
EXTT7=
EXTT8=
EXTT9=
EXTT10=
EXTT11=
EXTT12=
PLAYORDER=
